# xmcd
#
# Track frame offsets:
#	150
#	12640
#	24068
#	35496
#	43397
#	53466
#	64054
#	77140
#	88513
#	97712
#	110528
#	130440
#	145806
#	164405
#	181860
#	199255
#	214170
#	226028
#	244115
#	255868
#	272276
#	282997
#	297376
#	312702
#
# Disc length: 4373 seconds
#
# Revision: 0
# Processed by: cddbd v1.5.2PL0 Copyright (c) Steve Scherf et al.
# Submitted via: EasyCDDAExtractor 12.0.0.1
#
DISCID=4e111318
DTITLE=Various Artist - Bobby and Laurie And Other Fabulous Australian Perfor
DTITLE=mers
DYEAR=1970
DGENRE=Classic Rock
TTITLE0=Bobby and Laurie - Carroll County Accident
TTITLE1=Bobby and Laurie - Hole In The Ground
TTITLE2=Bobby and Laurie - Through The Eyes Of Love
TTITLE3=Bobby and Laurie - Trouble On The Turnpike
TTITLE4=Bobby and Laurie - I'm Gonna Be A Wheel Someday
TTITLE5=Bobby and Laurie - Aboard The TRain Of Love
TTITLE6=Liv Maessen - The Love Moth
TTITLE7=Liv Maessen - Knock Knock Who's There
TTITLE8=Liv Maessen - Snowbird
TTITLE9=Bluestone - Wind And Rain
TTITLE10=Bluestone - Home Ain't Home Anymore
TTITLE11=Bluestone - Hear The Bang
TTITLE12=Bluestone - Ride On
TTITLE13=Bluestone - The Only Girl
TTITLE14=Bluestone - Knowing You
TTITLE15=Bluestone - Stage Coach
TTITLE16=John Farrar - With Rainie On My Mind
TTITLE17=John Farrar - John And Mary
TTITLE18=Jigsaw - Yellow River
TTITLE19=Jigsaw - How Do You Do
TTITLE20=Jigsaw - Mademoiselle Ninette
TTITLE21=Jigsaw - A Rose Has To Die
TTITLE22=Terry Walker - Natural Sinner
TTITLE23=Terry Walker - Sweet Inspiration
EXTD=
EXTT0=
EXTT1=
EXTT2=
EXTT3=
EXTT4=
EXTT5=
EXTT6=
EXTT7=
EXTT8=
EXTT9=
EXTT10=
EXTT11=
EXTT12=
EXTT13=
EXTT14=
EXTT15=
EXTT16=
EXTT17=
EXTT18=
EXTT19=
EXTT20=
EXTT21=
EXTT22=
EXTT23=
PLAYORDER=
